<?xml version="1.0" encoding="UTF-8"?>
<svg xmlns="http://www.w3.org/2000/svg" viewBox="0 0 514.37 177.56">
  <defs>
    <style>
      .cls-1 {
        fill: #7b0e30;
      }

      .cls-2 {
        fill: #1d1d1b;
      }
    </style>
  </defs>
  <g id="Unterzeile">
    <path class="cls-2" d="M84.63,169.66c0,6.55-5.14,7.9-9.38,7.9s-9.38-1.35-9.38-7.9v-10.66h2.21v10.66c0,4.16,2.68,6.05,7.17,6.05s7.17-1.89,7.17-6.05v-10.66h2.21v10.66Z"/>
    <path class="cls-2" d="M89.46,159h3.14l13.57,14.9v-14.9h2.21v18.11h-2.21l-14.6-16.17v16.17h-2.11v-18.11Z"/>
    <path class="cls-2" d="M113.14,159h2.21v18.11h-2.21v-18.11Z"/>
    <path class="cls-2" d="M120.11,159l8.05,15.72,8.08-15.72h2.43l-9.43,18.11h-2.16l-9.43-18.11h2.46Z"/>
    <path class="cls-2" d="M140.98,159h16.26v1.94h-14.05v5.78h11.74v1.94h-11.74v6.5h14.35v1.94h-16.56v-18.11Z"/>
    <path class="cls-2" d="M160.49,159h10.54c2.91,0,7.17.62,7.17,5.06,0,3.79-3.54,4.88-5.75,4.98l6.02,8.07h-2.73l-5.87-8.02h-7.17v8.02h-2.21v-18.11ZM162.7,167.14h7.83c3.19,0,5.57-.45,5.57-3.11s-2.38-3.09-5.57-3.09h-7.83v6.2Z"/>
    <path class="cls-2" d="M182.96,171.93c1.05,1.4,2.81,3.69,8.28,3.69,2.81,0,6.65-.8,6.65-3.61,0-5.51-15.91-.67-15.91-8.02,0-3.86,3.59-5.43,8.55-5.43s7.78,1.97,9.03,3.71l-1.61,1.3c-.75-.85-2.51-3.16-7.48-3.16-3.66,0-6.25.95-6.25,3.24,0,5.48,15.91.25,15.91,8.37,0,3.04-2.96,5.56-9.16,5.56s-8.18-2.47-9.73-4.19l1.71-1.44Z"/>
    <path class="cls-2" d="M203.65,159h2.21v18.11h-2.21v-18.11Z"/>
    <path class="cls-2" d="M217.57,160.94h-8.81v-1.94h19.82v1.94h-8.81v16.17h-2.21v-16.17Z"/>
    <path class="cls-2" d="M235.78,159h2.71l9.36,18.11h-2.48l-2.36-4.71h-11.77l-2.38,4.71h-2.46l9.38-18.11ZM242.02,170.46l-4.89-9.74-4.89,9.74h9.78ZM233.72,154.59h2.26v2.54h-2.26v-2.54ZM238.29,154.59h2.26v2.54h-2.26v-2.54Z"/>
    <path class="cls-2" d="M254.46,160.94h-8.81v-1.94h19.82v1.94h-8.81v16.17h-2.21v-16.17Z"/>
    <path class="cls-2" d="M277.43,159h2.21v16.17h14.4v1.94h-16.61v-18.11Z"/>
    <path class="cls-2" d="M315.78,169.66c0,6.55-5.14,7.9-9.38,7.9s-9.38-1.35-9.38-7.9v-10.66h2.21v10.66c0,4.16,2.68,6.05,7.17,6.05s7.18-1.89,7.18-6.05v-10.66h2.21v10.66ZM302.99,154.59h2.26v2.54h-2.26v-2.54ZM307.56,154.59h2.26v2.54h-2.26v-2.54Z"/>
    <path class="cls-2" d="M320.62,159h3.13l13.57,14.9v-14.9h2.21v18.11h-2.21l-14.6-16.17v16.17h-2.11v-18.11Z"/>
    <path class="cls-2" d="M344.29,159h16.26v1.94h-14.05v5.78h11.74v1.94h-11.74v6.5h14.35v1.94h-16.56v-18.11Z"/>
    <path class="cls-2" d="M363.81,159h10.56c2.08,0,7.07,0,7.07,4.73,0,2.49-1.63,3.26-2.78,3.81,1.1.47,3.41,1.47,3.41,4.48,0,4.88-5.14,5.08-8.93,5.08h-9.33v-18.11ZM366.01,166.72h7.75c2.56,0,5.47-.42,5.47-2.96,0-2.89-2.96-2.92-6.22-2.92h-7v5.88ZM366.01,175.17h8.55c2.66,0,5.24-.45,5.24-3.21,0-2.52-2.01-3.39-4.99-3.39h-8.81v6.6Z"/>
    <path class="cls-2" d="M404.94,169.66c0,6.55-5.14,7.9-9.38,7.9s-9.38-1.35-9.38-7.9v-10.66h2.21v10.66c0,4.16,2.68,6.05,7.17,6.05s7.18-1.89,7.18-6.05v-10.66h2.21v10.66Z"/>
    <path class="cls-2" d="M409.78,159h10.54c2.91,0,7.17.62,7.17,5.06,0,3.79-3.54,4.88-5.74,4.98l6.02,8.07h-2.73l-5.87-8.02h-7.17v8.02h-2.21v-18.11ZM411.98,167.14h7.83c3.19,0,5.57-.45,5.57-3.11s-2.38-3.09-5.57-3.09h-7.83v6.2Z"/>
    <path class="cls-2" d="M450.54,168.32v8.94h-1.96v-2.64c-1.23,1.42-3.21,2.94-7.32,2.94-7.08,0-10.41-4.21-10.41-9.47,0-6.23,4.24-9.54,10.39-9.54,4.34,0,7.68,1.94,9.03,4.98l-1.86.97c-1.43-3.24-4.79-4.11-7.25-4.11-5.12,0-8.05,2.82-8.05,7.97,0,4.16,2.83,7.25,8.25,7.25,3.31,0,6.87-1.59,7.18-5.36h-7.4v-1.94h9.41Z"/>
  </g>
  <g id="Leuphana_Schriftzug" data-name="Leuphana Schriftzug">
    <path class="cls-1" d="M15.2,95.48H0l.04,14.9-.04,31.75h47.07v-7.49s-11.74,0-15.84,0H15.21v-24.26l-.02-14.9Z"/>
    <polygon class="cls-1" points="108.12 142.13 108.12 134.61 70.72 134.65 70.72 122.06 92.88 122.06 92.88 114.57 70.72 114.58 70.72 102.97 108.12 102.97 108.12 95.48 55.54 95.48 55.54 142.13 108.12 142.13"/>
    <path class="cls-1" d="M222.76,109.68c0,2.1-.9,4.19-2.23,5.24-1.33,1.05-3.44,1.47-6.99,1.47h-14.33v-13.43h14.15c1.39,0,3.31.14,4.33.28,1.27.21,2.41.77,3.32,1.76,1.14,1.12,1.74,2.87,1.74,4.68M239.44,109.47c0-6.23-3.85-11.33-9.57-12.95-2.59-.69-5.42-1.05-9.28-1.05h-36.58l.02,14.9v16.92l-.02,14.83h15.2v-18.25h18.67c7.53,0,12.05-.92,15.66-3.14,3.68-2.31,5.9-6.58,5.9-11.26"/>
    <polygon class="cls-1" points="303.49 142.13 303.49 95.48 288.32 95.48 288.32 114.5 262.18 114.5 262.13 95.48 247 95.48 247 142.13 262.13 142.13 262.18 122.61 288.32 122.61 288.32 142.13 303.49 142.13"/>
    <path class="cls-1" d="M348.09,120.31h-17.35l8.8-16.02,8.55,16.02ZM377.78,142.13l-25.35-46.65h-16.5l-18.37,32.8c-.66,1.12-7.71,13.85-7.71,13.85h8.9l8.45-14.97h24.57l7.94,14.97h18.07Z"/>
    <path class="cls-1" d="M439.55,95.48h-7.85s.01,10,.01,14.9v16.78l-28.97-31.69h-17.28v46.65h7.83s.06-10.28.06-11.4c-.06-.77-.06-1.89-.06-3.43v-17.42l29.69,32.24h16.56v-46.65Z"/>
    <path class="cls-1" d="M484.69,120.34h-17.35l8.8-16.02,8.55,16.02ZM514.37,142.15l-25.35-46.65h-16.5l-18.37,32.81c-.66,1.12-7.71,13.84-7.71,13.84h8.91l8.45-14.96h24.58l7.93,14.96h18.07Z"/>
    <path class="cls-1" d="M166.76,95.48h-6.7l.03,14.9v13.01c0,1.88-.26,3.56-.62,4.96-.56,2.03-1.54,3.78-2.82,4.89-2.02,1.8-4.78,2.62-7.83,2.74-4.57-.17-8.42-1.56-10.93-3.91-1.12-1.25-1.95-2.74-2.34-4.5-.41-1.96-.56-3.78-.56-7.21v-24.9h-16.1s.05,10,.05,14.9v13.98c0,6.02,1.2,9.51,4.39,12.87,3.25,3.36,7.29,5.18,13.73,6.03.27.04.55.05.83.08,2.34.35,4.76.54,7.13.54.22,0,.42-.01.63-.02.21,0,.42.02.62.02,10.72,0,17.77-2.31,21.8-7.27,2.95-3.57,3.73-6.65,3.73-14.34v-11.88c0-4.97.01-14.9.01-14.9h-5.08Z"/>
  </g>
  <g id="Netzwürfel">
    <path id="Logo-Pfade-bereinigt" class="cls-2" d="M258.04,0h-.03l-31.19,17.73v35.15l31.19,17.73h.03l31.19-17.73V17.73L258.04,0ZM259.16,3.37l26.03,14.79-26.03,15.18V3.37ZM256.88,3.37v29.97l-26.06-15.16,26.06-14.81ZM229.11,19.78l26.69,15.53-26.69,15.56v-31.09ZM256.88,37.27v29.97l-26.03-14.79,26.03-15.18ZM259.16,67.24v-29.97l26.06,15.16-26.06,14.81ZM286.94,50.83l-26.69-15.53,26.69-15.57v31.1Z"/>
  </g>
</svg>